<svg xmlns="http://www.w3.org/2000/svg" width="141.896" height="71.021" viewBox="0 0 141.896 71.021"><g transform="translate(6127.055 4221.963)"><g transform="translate(-6126.055 -4220.711)"><g transform="translate(0 0)"><path d="M0,0,13.192,42.416Z" transform="translate(0.086 26.102)" fill="none" stroke="#fff" stroke-linecap="round" stroke-linejoin="round" stroke-width="2"/><line x1="20.8" transform="translate(13.278 68.518)" fill="none" stroke="#fff" stroke-linecap="round" stroke-width="2"/><line x2="13.051" y2="42.416" transform="translate(21.027 26.102)" fill="none" stroke="#fff" stroke-linecap="round" stroke-width="2"/><path d="M0,0,10.481,33.39Z" transform="translate(34.486)" fill="none" stroke="#fff" stroke-linecap="round" stroke-linejoin="round" stroke-width="2"/><path d="M8.109,0H28.961" transform="translate(-8.109 26.102)" fill="none" stroke="#fff" stroke-linecap="round" stroke-width="2"/></g><g transform="translate(23.711 0)"><path d="M10.79,0,0,35.22Z" transform="translate(10.366 33.298)" fill="none" stroke="#fff" stroke-linecap="round" stroke-width="2"/><path d="M31.263,0,20.489,34.723" transform="translate(-20.489)" fill="none" stroke="#fff" stroke-linecap="round" stroke-width="2"/><path d="M13.7,0H3.32" transform="translate(7.455)" fill="none" stroke="#fff" stroke-linecap="round" stroke-width="2"/></g></g><g transform="translate(-6081.192 -4220.711)"><g transform="translate(0 0)"><path d="M0,0,10.745,35.075Z" transform="translate(0.086 33.444)" fill="none" stroke="#fff" stroke-linecap="round" stroke-linejoin="round" stroke-width="2"/><line x1="20.8" transform="translate(10.83 68.518)" fill="none" stroke="#fff" stroke-linecap="round" stroke-width="2"/><line x2="21.208" y2="68.518" transform="translate(10.423)" fill="none" stroke="#fff" stroke-linecap="round" stroke-width="2"/><path d="M0,0,10.481,33.39Z" transform="translate(32.039 0)" fill="none" stroke="#fff" stroke-linecap="round" stroke-linejoin="round" stroke-width="2"/><path d="M8.109,0H18.532" transform="translate(-8.109)" fill="none" stroke="#fff" stroke-linecap="round" stroke-width="2"/></g><g transform="translate(21.264 0)"><path d="M10.79,0,0,35.22Z" transform="translate(10.366 33.298)" fill="none" stroke="#fff" stroke-linecap="round" stroke-width="2"/><path d="M31.263,0,20.489,34.723" transform="translate(-20.489)" fill="none" stroke="#fff" stroke-linecap="round" stroke-width="2"/><path d="M13.7,0H3.32" transform="translate(7.455)" fill="none" stroke="#fff" stroke-linecap="round" stroke-width="2"/></g></g><g transform="translate(-6038.776 -4220.856)"><g transform="translate(0 0.145)"><path d="M0,0,10.745,35.075Z" transform="translate(0.086 33.444)" fill="none" stroke="#fff" stroke-linecap="round" stroke-linejoin="round" stroke-width="2"/><line x1="20.8" transform="translate(10.83 68.518)" fill="none" stroke="#fff" stroke-linecap="round" stroke-width="2"/><line x2="21.208" y2="68.518" transform="translate(10.423)" fill="none" stroke="#fff" stroke-linecap="round" stroke-width="2"/><path d="M8.109,0H18.532" transform="translate(-8.109)" fill="none" stroke="#fff" stroke-linecap="round" stroke-width="2"/></g><g transform="translate(21.264 0)"><path d="M20.986,0,0,68.663Z" transform="translate(10.366)" fill="none" stroke="#fff" stroke-linecap="round" stroke-width="2"/><path d="M31.263,0,20.489,34.723" transform="translate(-20.489 0.145)" fill="none" stroke="#fff" stroke-linecap="round" stroke-width="2"/><path d="M23.9,0H3.32" transform="translate(7.455 0.145)" fill="none" stroke="#fff" stroke-linecap="round" stroke-width="2"/></g></g></g></svg>