<svg xmlns="http://www.w3.org/2000/svg" xmlns:xlink="http://www.w3.org/1999/xlink" width="110.816" height="66.573" viewBox="0 0 110.816 66.573"><defs><filter id="a" x="8.536" y="0" width="46.216" height="66.572" filterUnits="userSpaceOnUse"><feOffset dy="3" input="SourceAlpha"/><feGaussianBlur stdDeviation="3" result="b"/><feFlood flood-opacity="0.161"/><feComposite operator="in" in2="b"/><feComposite in="SourceGraphic"/></filter><filter id="c" x="0" y="17.843" width="40.511" height="48.729" filterUnits="userSpaceOnUse"><feOffset dy="3" input="SourceAlpha"/><feGaussianBlur stdDeviation="3" result="d"/><feFlood flood-opacity="0.161"/><feComposite operator="in" in2="d"/><feComposite in="SourceGraphic"/></filter><filter id="e" x="64.589" y="0" width="46.228" height="66.573" filterUnits="userSpaceOnUse"><feOffset dy="3" input="SourceAlpha"/><feGaussianBlur stdDeviation="3" result="f"/><feFlood flood-opacity="0.161"/><feComposite operator="in" in2="f"/><feComposite in="SourceGraphic"/></filter><filter id="g" x="35.958" y="0" width="47.141" height="66.572" filterUnits="userSpaceOnUse"><feOffset dy="3" input="SourceAlpha"/><feGaussianBlur stdDeviation="3" result="h"/><feFlood flood-opacity="0.161"/><feComposite operator="in" in2="h"/><feComposite in="SourceGraphic"/></filter><filter id="i" x="50.911" y="0" width="45.319" height="66.572" filterUnits="userSpaceOnUse"><feOffset dy="3" input="SourceAlpha"/><feGaussianBlur stdDeviation="3" result="j"/><feFlood flood-opacity="0.161"/><feComposite operator="in" in2="j"/><feComposite in="SourceGraphic"/></filter><filter id="k" x="22.995" y="0" width="45.319" height="66.572" filterUnits="userSpaceOnUse"><feOffset dy="3" input="SourceAlpha"/><feGaussianBlur stdDeviation="3" result="l"/><feFlood flood-opacity="0.161"/><feComposite operator="in" in2="l"/><feComposite in="SourceGraphic"/></filter></defs><g transform="translate(7.333 -0.15)"><g transform="translate(1.667 6.15)"><g transform="matrix(1, 0, 0, 1, -9, -6)" filter="url(#a)"><path d="M13.838,48.572H1.867L0,47.983,14.2,0H28.216Z" transform="translate(17.54 6)" fill="#ffffff"/></g><g transform="matrix(1, 0, 0, 1, -9, -6)" filter="url(#c)"><path d="M22.19,30.729H8.208L0,.1.363,0H14.3l8.211,30.643-.321.086h0Z" transform="translate(9 23.84)" fill="#ffffff"/></g></g><g transform="translate(24.662 6.15)"><g transform="matrix(1, 0, 0, 1, -32, -6)" filter="url(#e)"><path d="M13.546,48.573H1.471A2.989,2.989,0,0,1,.133,45.114L13.926,0h14.3a3,3,0,0,1-.13.982l-14.55,47.59Z" transform="translate(73.59 6)" fill="#ffffff"/></g><g transform="matrix(1, 0, 0, 1, -32, -6)" filter="url(#g)"><path d="M14.291,48.572H1.928L0,47.983,14.67,0H29.141L14.291,48.572Z" transform="translate(44.96 6)" fill="#ffffff"/></g><g transform="matrix(1, 0, 0, 1, -32, -6)" filter="url(#i)"><path d="M27,48.572H13.015L0,0H14.327L27.319,48.486,27,48.572Z" transform="translate(59.91 6)" fill="#ffffff"/></g><g transform="matrix(1, 0, 0, 1, -32, -6)" filter="url(#k)"><path d="M27,48.572H13.015L0,0H14.327L27.319,48.486,27,48.572Z" transform="translate(32 6)" fill="#ffffff"/></g></g></g></svg>