<svg xmlns="http://www.w3.org/2000/svg" xmlns:xlink="http://www.w3.org/1999/xlink" width="229.001" height="126.618" viewBox="0 0 229.001 126.618">
  <defs>
    <filter id="_4" x="144.98" y="0" width="84.021" height="126.618" filterUnits="userSpaceOnUse">
      <feOffset dy="3" input="SourceAlpha"/>
      <feGaussianBlur stdDeviation="3" result="blur"/>
      <feFlood flood-opacity="0.161"/>
      <feComposite operator="in" in2="blur"/>
      <feComposite in="SourceGraphic"/>
    </filter>
    <filter id="_3" x="115.495" y="0" width="80.84" height="126.618" filterUnits="userSpaceOnUse">
      <feOffset dy="3" input="SourceAlpha"/>
      <feGaussianBlur stdDeviation="3" result="blur-2"/>
      <feFlood flood-opacity="0.161"/>
      <feComposite operator="in" in2="blur-2"/>
      <feComposite in="SourceGraphic"/>
    </filter>
    <filter id="_2" x="82.415" y="0" width="84.766" height="126.618" filterUnits="userSpaceOnUse">
      <feOffset dy="3" input="SourceAlpha"/>
      <feGaussianBlur stdDeviation="3" result="blur-3"/>
      <feFlood flood-opacity="0.161"/>
      <feComposite operator="in" in2="blur-3"/>
      <feComposite in="SourceGraphic"/>
    </filter>
    <filter id="_1" x="53.675" y="0" width="80.84" height="126.618" filterUnits="userSpaceOnUse">
      <feOffset dy="3" input="SourceAlpha"/>
      <feGaussianBlur stdDeviation="3" result="blur-4"/>
      <feFlood flood-opacity="0.161"/>
      <feComposite operator="in" in2="blur-4"/>
      <feComposite in="SourceGraphic"/>
    </filter>
    <filter id="_2-2" x="18.386" y="0" width="84.766" height="126.618" filterUnits="userSpaceOnUse">
      <feOffset dy="3" input="SourceAlpha"/>
      <feGaussianBlur stdDeviation="3" result="blur-5"/>
      <feFlood flood-opacity="0.161"/>
      <feComposite operator="in" in2="blur-5"/>
      <feComposite in="SourceGraphic"/>
    </filter>
    <filter id="_1-2" x="0" y="38.431" width="70.487" height="88.186" filterUnits="userSpaceOnUse">
      <feOffset dy="3" input="SourceAlpha"/>
      <feGaussianBlur stdDeviation="3" result="blur-6"/>
      <feFlood flood-opacity="0.161"/>
      <feComposite operator="in" in2="blur-6"/>
      <feComposite in="SourceGraphic"/>
    </filter>
  </defs>
  <g id="logo" transform="translate(11.259 1.85)">
    <g id="W" transform="translate(53.416 6.149)">
      <g transform="matrix(1, 0, 0, 1, -64.68, -8)" filter="url(#_4)">
        <g id="_4-2" data-name="4" transform="translate(156.83 8)" stroke-linecap="round" stroke-linejoin="round">
          <path d="M 29.19114875793457 105.617805480957 L 2.563206672668457 105.617805480957 L 2.41374945640564 105.617805480957 L 2.27082085609436 105.574104309082 L 0.9874209761619568 105.1817092895508 C -0.0344504788517952 104.8695068359375 -0.8735790252685547 104.1780624389648 -1.375207662582397 103.2347946166992 C -1.876907587051392 102.2913665771484 -1.980921864509583 101.2089538574219 -1.668093323707581 100.1869201660156 L 29.05090713500977 -0.2914637923240662 L 29.26725006103516 -0.9990923404693604 L 30.00720596313477 -0.9990923404693604 L 61.17543411254883 -0.9990923404693604 L 62.52684783935547 -0.9990923404693604 L 62.13173675537109 0.2932790815830231 L 30.14746475219727 104.9101791381836 L 30.14556312561035 104.9163970947266 L 30.14359283447266 104.9225769042969 L 29.19114875793457 104.6277465820313 L 29.19114875793457 105.617805480957 Z" stroke="none"/>
          <path d="M 29.19094085693359 104.618522644043 L 29.19117164611816 104.6177978515625 L 61.17543411254883 0.0009076416026800871 L 30.0072021484375 0.0009076416026800871 L -0.7118900418281555 100.4796142578125 C -0.9465054273605347 101.24609375 -0.8685207962989807 102.0578155517578 -0.4922900497913361 102.7652587890625 C -0.1161054223775864 103.4726486206055 0.5132330656051636 103.9912033081055 1.279802322387695 104.2254028320313 L 2.563202381134033 104.6177978515625 L 29.1911563873291 104.6177978515625 L 29.19094085693359 104.618522644043 M 29.19146156311035 106.6186370849609 C 29.17223739624023 106.6186370849609 29.15303802490234 106.6183624267578 29.13375663757324 106.6177978515625 L 2.563202381134033 106.6177978515625 C 2.365017652511597 106.6177978515625 2.167940616607666 106.5883407592773 1.978417634963989 106.530403137207 L 0.6950176358222961 106.1380004882813 C -0.5821362137794495 105.747802734375 -1.631059288978577 104.8834609985352 -2.258120775222778 103.7043228149414 C -2.885320901870728 102.5249710083008 -3.015367031097412 101.1718444824219 -2.624305486679077 99.89423370361328 L 28.0945873260498 -0.5838308334350586 C 28.3516788482666 -1.424738526344299 29.12786293029785 -1.99909234046936 30.0072021484375 -1.99909234046936 L 61.17543411254883 -1.99909234046936 C 61.80949401855469 -1.99909234046936 62.40598678588867 -1.698430776596069 62.78314208984375 -1.188738465309143 C 63.16029357910156 -0.6790462136268616 63.27341842651367 -0.020707743242383 63.08804702758789 0.5856460928916931 L 31.10378646850586 105.2025375366211 C 31.10140228271484 105.210334777832 31.09897232055664 105.2181091308594 31.09649467468262 105.2258758544922 C 30.82539367675781 106.075309753418 30.0391902923584 106.6186370849609 29.19146156311035 106.6186370849609 Z" stroke="none" fill="#fff"/>
        </g>
      </g>
      <g transform="matrix(1, 0, 0, 1, -64.68, -8)" filter="url(#_3)">
        <g id="_3-2" data-name="3" transform="translate(126.5 8)" stroke-linecap="round" stroke-linejoin="round">
          <path d="M 58.14824676513672 105.6178131103516 L 28.03280258178711 105.6178131103516 L 27.26547431945801 105.6178131103516 L 27.06687355041504 104.8766403198242 L -0.9659407734870911 0.2588275074958801 L -1.303240776062012 -1.000001072883606 L -1.21856692203437e-05 -1.000001072883606 L 30.85805892944336 -1.000001072883606 L 31.62538719177246 -1.000001072883606 L 31.82398796081543 -0.2588153481483459 L 59.80612945556641 104.173583984375 L 60.06494522094727 105.1395111083984 L 59.09901809692383 105.3983306884766 L 58.43614196777344 105.5759353637695 L 58.31063079833984 105.6177673339844 L 58.14824676513672 105.6178131103516 Z" stroke="none"/>
          <path d="M 58.14824295043945 104.617805480957 L 58.14810180664063 104.617805480957 L 58.14824295043945 104.617805480957 M 58.14824295043945 104.617805480957 L 58.14834976196289 104.6177749633789 L 58.84019470214844 104.4324035644531 L 30.85805702209473 -8.766526661929674e-06 L -1.987797622859944e-05 -8.766526661929674e-06 L 28.03281021118164 104.617805480957 L 58.14824295043945 104.617805480957 M 58.14824295043945 106.617805480957 L 28.03281021118164 106.617805480957 C 27.12761116027832 106.617805480957 26.33525657653809 106.0098190307617 26.10096549987793 105.1354522705078 L -1.931866049766541 0.5176373720169067 C -2.092804431915283 -0.08294722437858582 -1.965250611305237 -0.7242395281791687 -1.586727619171143 -1.217531800270081 C -1.208219885826111 -1.710824131965637 -0.6218044757843018 -2.000008821487427 -1.987797622859944e-05 -2.000008821487427 L 30.85805702209473 -2.000008821487427 C 31.76327323913574 -2.000008821487427 32.55562591552734 -1.392008781433105 32.78990173339844 -0.5176395177841187 L 60.77204132080078 103.9147796630859 C 60.90933227539063 104.4271469116211 60.83745574951172 104.9730529785156 60.57224273681641 105.4324188232422 C 60.30701065063477 105.8917922973633 59.87016296386719 106.2269897460938 59.35781097412109 106.3642654418945 L 58.70982360839844 106.5378875732422 C 58.53436660766602 106.5891189575195 58.34885406494141 106.6169509887695 58.15704727172852 106.617790222168 C 58.15694427490234 106.617790222168 58.15685653686523 106.617790222168 58.15675735473633 106.617790222168 C 58.15554428100586 106.617790222168 58.15433502197266 106.6177978515625 58.15312194824219 106.6177978515625 C 58.15282821655273 106.6177978515625 58.15251159667969 106.6177978515625 58.15221405029297 106.617805480957 C 58.1508674621582 106.617805480957 58.14958953857422 106.617805480957 58.14824295043945 106.617805480957 Z" stroke="none" fill="#fff"/>
        </g>
      </g>
      <g transform="matrix(1, 0, 0, 1, -64.68, -8)" filter="url(#_2)">
        <g id="_2-3" data-name="2" transform="translate(93.42 8)" stroke-linecap="round" stroke-linejoin="round">
          <path d="M 30.78029632568359 105.617805480957 L 4.150611400604248 105.617805480957 L 4.001153945922852 105.617805480957 L 3.858225584030151 105.574104309082 L -0.2923744916915894 104.3051071166992 L -1.248660206794739 104.0127334594727 L -0.956288754940033 103.0564346313477 L 30.64078330993652 -0.2914637923240662 L 30.85712623596191 -0.9990923404693604 L 31.59708213806152 -0.9990923404693604 L 62.7651252746582 -0.9990923404693604 L 64.11655426025391 -0.9990923404693604 L 63.7214241027832 0.2932790815830231 L 31.73659706115723 104.9101791381836 L 31.73469734191895 104.9163970947266 L 31.73272514343262 104.9225769042969 L 30.78029632568359 104.6182022094727 L 30.78029632568359 105.617805480957 Z" stroke="none"/>
          <path d="M 30.78005981445313 104.618522644043 L 30.7802906036377 104.6177978515625 L 62.76512145996094 0.0009076416026800871 L 31.59707641601563 0.0009076416026800871 L 1.451322077627992e-05 103.3488159179688 L 4.150614738464355 104.6177978515625 L 30.7802906036377 104.6177978515625 L 30.78005981445313 104.618522644043 M 30.78046035766602 106.6186599731445 C 30.7610034942627 106.6186599731445 30.7415885925293 106.6183700561523 30.72207450866699 106.6177978515625 L 4.150614738464355 106.6177978515625 C 3.952445268630981 106.6177978515625 3.75536847114563 106.5883560180664 3.565860748291016 106.530403137207 L -0.5847393274307251 105.2614135742188 C -1.64104700088501 104.9384765625 -2.235539436340332 103.8203659057617 -1.912585496902466 102.7640609741211 L 29.68447685241699 -0.5838462114334106 C 29.94156837463379 -1.424753904342651 30.71773719787598 -1.99909234046936 31.59707641601563 -1.99909234046936 L 62.76512145996094 -1.99909234046936 C 63.39918518066406 -1.99909234046936 63.99569320678711 -1.698430776596069 64.37283325195313 -1.188738465309143 C 64.74998474121094 -0.6790462136268616 64.86310577392578 -0.02069235779345036 64.677734375 0.5856614708900452 L 32.69290542602539 105.2025527954102 C 32.69052124023438 105.210334777832 32.68809127807617 105.2181243896484 32.68561553955078 105.2258758544922 C 32.41431045532227 106.0759735107422 31.62752914428711 106.6186599731445 30.78046035766602 106.6186599731445 Z" stroke="none" fill="#fff"/>
        </g>
      </g>
      <g transform="matrix(1, 0, 0, 1, -64.68, -8)" filter="url(#_1)">
        <g id="_1-3" data-name="1" transform="translate(64.68 8)" stroke-linecap="round" stroke-linejoin="round">
          <path d="M 58.14821624755859 105.6178131103516 L 28.03195762634277 105.6178131103516 L 27.26462936401367 105.6178131103516 L 27.06603050231934 104.8766250610352 L -0.9659702777862549 0.258813202381134 L -1.30327033996582 -1.000001072883606 L -4.173017077846453e-05 -1.000001072883606 L 30.85727310180664 -1.000001072883606 L 31.62460136413574 -1.000001072883606 L 31.82320022583008 -0.258829653263092 L 59.80611419677734 104.1735687255859 L 60.06494522094727 105.1395111083984 L 59.0989875793457 105.3983306884766 L 58.4361686706543 105.5759201049805 L 58.31060028076172 105.6177673339844 L 58.14821624755859 105.6178131103516 Z" stroke="none"/>
          <path d="M 58.14822769165039 104.617805480957 L 58.14821243286133 104.617805480957 L 58.1480712890625 104.617805480957 L 58.14821243286133 104.617805480957 L 58.14822769165039 104.617805480957 M 58.14822769165039 104.617805480957 L 58.14833450317383 104.6177749633789 L 58.84019470214844 104.4324035644531 L 30.85727310180664 -8.766526661929674e-06 L -5.052137930761091e-05 -8.766526661929674e-06 L 28.0319652557373 104.617805480957 L 58.14821243286133 104.617805480957 M 58.14822769165039 106.617805480957 C 58.14821243286133 106.617805480957 58.14821243286133 106.617805480957 58.14821243286133 106.617805480957 L 28.0319652557373 106.617805480957 C 27.12674903869629 106.617805480957 26.33439636230469 106.0098037719727 26.10011863708496 105.1354370117188 L -1.931896686553955 0.5176219940185547 C -2.092835187911987 -0.08296260982751846 -1.965265870094299 -0.7242395281791687 -1.586758255958557 -1.217531800270081 C -1.208235144615173 -1.710824131965637 -0.6218351125717163 -2.000008821487427 -5.052137930761091e-05 -2.000008821487427 L 30.85727310180664 -2.000008821487427 C 31.76248741149902 -2.000008821487427 32.55484008789063 -1.392024159431458 32.78911972045898 -0.5176548957824707 L 60.77204132080078 103.9147567749023 C 60.90933227539063 104.427131652832 60.83745574951172 104.9730529785156 60.57224273681641 105.4324188232422 C 60.30701065063477 105.8917922973633 59.87016296386719 106.2269897460938 59.35779571533203 106.3642654418945 L 58.70989227294922 106.5378570556641 C 58.53413391113281 106.5891799926758 58.3482666015625 106.6170501708984 58.15609741210938 106.617790222168 C 58.15596771240234 106.617790222168 58.15583419799805 106.617790222168 58.15570449829102 106.617790222168 C 58.15469360351563 106.6177978515625 58.15360641479492 106.6177978515625 58.15259552001953 106.6177978515625 C 58.15234756469727 106.617805480957 58.15208435058594 106.617805480957 58.15183258056641 106.617805480957 C 58.15061950683594 106.617805480957 58.14944076538086 106.617805480957 58.14822769165039 106.617805480957 Z" stroke="none" fill="#fff"/>
        </g>
      </g>
    </g>
    <g id="J" transform="translate(-0.259 6.149)">
      <g transform="matrix(1, 0, 0, 1, -11, -8)" filter="url(#_2-2)">
        <g id="_2-4" data-name="2" transform="translate(29.39 8)" stroke-linecap="round" stroke-linejoin="round">
          <path d="M 30.77939605712891 105.617805480957 L 4.149711132049561 105.617805480957 L 4.000253677368164 105.617805480957 L 3.857325315475464 105.574104309082 L -0.2932747602462769 104.3051071166992 L -1.249560475349426 104.0127334594727 L -0.9571890234947205 103.0564346313477 L 30.63988304138184 -0.2914637923240662 L 30.85622596740723 -0.9990923404693604 L 31.59618186950684 -0.9990923404693604 L 62.76422500610352 -0.9990923404693604 L 64.11565399169922 -0.9990923404693604 L 63.72052383422852 0.2932790815830231 L 31.73569679260254 104.9101791381836 L 31.73379707336426 104.9163970947266 L 31.73182487487793 104.9225769042969 L 30.77939605712891 104.6182022094727 L 30.77939605712891 105.617805480957 Z" stroke="none"/>
          <path d="M 30.77915954589844 104.618522644043 L 30.77939033508301 104.6177978515625 L 62.76422119140625 0.0009076416026800871 L 31.59617614746094 0.0009076416026800871 L -0.0008857553475536406 103.3488159179688 L 4.149714469909668 104.6177978515625 L 30.77939033508301 104.6177978515625 L 30.77915954589844 104.618522644043 M 30.77956008911133 106.6186599731445 C 30.76010322570801 106.6186599731445 30.74068832397461 106.6183700561523 30.7211742401123 106.6177978515625 L 4.149714469909668 106.6177978515625 C 3.951545000076294 106.6177978515625 3.754468202590942 106.5883560180664 3.564960479736328 106.530403137207 L -0.5856395959854126 105.2614135742188 C -1.641947269439697 104.9384765625 -2.23643970489502 103.8203659057617 -1.913485765457153 102.7640609741211 L 29.6835765838623 -0.5838462114334106 C 29.9406681060791 -1.424753904342651 30.71683692932129 -1.99909234046936 31.59617614746094 -1.99909234046936 L 62.76422119140625 -1.99909234046936 C 63.39828491210938 -1.99909234046936 63.99479293823242 -1.698430776596069 64.37193298339844 -1.188738465309143 C 64.74908447265625 -0.6790462136268616 64.86220550537109 -0.02069235779345036 64.67683410644531 0.5856614708900452 L 32.6920051574707 105.2025527954102 C 32.68962097167969 105.210334777832 32.68719100952148 105.2181243896484 32.68471527099609 105.2258758544922 C 32.41341018676758 106.0759735107422 31.62662887573242 106.6186599731445 30.77956008911133 106.6186599731445 Z" stroke="none" fill="#fff"/>
        </g>
      </g>
      <g transform="matrix(1, 0, 0, 1, -11, -8)" filter="url(#_1-2)">
        <g id="_1-4" data-name="1" transform="translate(11 46.43)" stroke-linecap="round" stroke-linejoin="round">
          <path d="M 47.79560089111328 67.18690490722656 L 17.67902183532715 67.18690490722656 L 16.91169166564941 67.18690490722656 L 16.71309089660645 66.44572448730469 L -0.9650283455848694 0.4694263935089111 L -1.223838329315186 -0.4964936077594757 L -0.257928341627121 -0.7553135752677917 L 0.5246516466140747 -0.9650136232376099 L 0.6518216729164124 -0.9990935921669006 L 0.7834816575050354 -0.9990935921669006 L 30.8028621673584 -0.9990935921669006 L 31.57019233703613 -0.9990935921669006 L 31.76879119873047 -0.2579135894775391 L 49.45343017578125 65.74269866943359 L 49.71224212646484 66.70862579345703 L 48.74632263183594 66.96744537353516 L 48.05454254150391 67.15280914306641 L 48.03763198852539 67.15733337402344 L 48.02058029174805 67.16127014160156 L 47.90961074829102 67.18687438964844 L 47.79560089111328 67.18690490722656 Z" stroke="none"/>
          <path d="M 47.79560089111328 66.18690490722656 L 47.79559326171875 66.18690490722656 L 47.79546356201172 66.18690490722656 L 47.79559326171875 66.18690490722656 L 47.79560089111328 66.18690490722656 M 47.79560089111328 66.18690490722656 L 47.79572296142578 66.18687438964844 L 48.48750305175781 66.00151824951172 L 30.8028621673584 0.000906402594409883 L 0.7834816575050354 0.000906402594409883 L 0.0009016601834446192 0.2106063961982727 L 17.67902183532715 66.18690490722656 L 47.79559326171875 66.18690490722656 M 47.79560089111328 68.18690490722656 C 47.79559326171875 68.18690490722656 47.79559326171875 68.18690490722656 47.79559326171875 68.18690490722656 L 17.67902183532715 68.18690490722656 C 16.77381134033203 68.18690490722656 15.98145198822021 67.57890319824219 15.74717140197754 66.70453643798828 L -1.930948376655579 0.7282363772392273 C -2.216828346252441 -0.3386836051940918 -1.583678364753723 -1.435343623161316 -0.5167583227157593 -1.721243619918823 L 0.2658216655254364 -1.930943608283997 C 0.4346616566181183 -1.976183652877808 0.6086916327476501 -1.999093651771545 0.7834816575050354 -1.999093651771545 L 30.8028621673584 -1.999093651771545 C 31.70807075500488 -1.999093651771545 32.50043106079102 -1.391093611717224 32.73471069335938 -0.5167235732078552 L 50.41935348510742 65.48388671875 C 50.556640625 65.99624633789063 50.48477172851563 66.54216003417969 50.21955108642578 67.00151824951172 C 49.95433044433594 67.46088409423828 49.51749038696289 67.79608917236328 49.00513076782227 67.93336486816406 L 48.3572998046875 68.10694885253906 C 48.18130111694336 68.15836334228516 47.9952507019043 68.18621063232422 47.80280303955078 68.1868896484375 C 47.8027458190918 68.1868896484375 47.80270004272461 68.18689727783203 47.80264282226563 68.18689727783203 C 47.80163192749023 68.18689727783203 47.80059814453125 68.18689727783203 47.79958724975586 68.18690490722656 C 47.79941177368164 68.18690490722656 47.79922485351563 68.18690490722656 47.79904937744141 68.18690490722656 C 47.79790496826172 68.18690490722656 47.79674911499023 68.18690490722656 47.79560089111328 68.18690490722656 Z" stroke="none" fill="#fff"/>
        </g>
      </g>
    </g>
  </g>
</svg>
